<?xml version="1.0" ?><svg id="outline" viewBox="0 0 340 340" xmlns="http://www.w3.org/2000/svg"><title/><path d="M312.972,177.8a72.756,72.756,0,0,1,5.193-21.188,18.8,18.8,0,0,0-8.906-24.08l-13.955-7.01a3.461,3.461,0,0,0-4.116.766c-12.115,13.331-23.934,18.034-33.8,20.489a3.461,3.461,0,1,0,1.671,6.718c10.31-2.564,22.57-7.378,35.445-20.627l11.647,5.852a11.856,11.856,0,0,1,5.644,15.181,79.621,79.621,0,0,0-5.71,23.205,86.361,86.361,0,0,0,2.861,31.6c4.241,15.442,12.123,53.908-6.22,77.529-10.488,13.5-28.21,20.357-52.761,20.413v-4.714a12.542,12.542,0,0,0-9.066-12.03v-1.465c.854.022,1.734.035,2.645.035,13.837,0,33.793-2.795,44.638-17.209,9.652-12.829,10.122-32.073,1.387-57.222-.095-.269-9.394-27.124,1.766-48.3a3.463,3.463,0,0,0-5.57-4c-.135.141-12.166,12.372-37.031,14.469a12.419,12.419,0,0,0,1.231-5.378V154.811a12.542,12.542,0,0,0-9.066-12.03V108.258a12.3,12.3,0,0,0-2.988-8.035,12.941,12.941,0,0,0,5.132-8.988c1.308-12.02-4.74-20.216-16.664-22.774-2.636-7.895-10.79-19.774-27.363-19.774-14.414,0-22.2,7.1-26,12.391-11.854-15.853-31.763-13.487-41.522-9.544-1.1.377-9.034,3.336-11.672,11.555a3.461,3.461,0,1,0,6.591,2.117c1.657-5.163,7.189-7.077,7.319-7.12.044-.014.08-.038.122-.054s.08-.019.119-.034c1-.4,24.183-9.478,35.456,10.257-.655,2.393-1.536,7.005-.184,11.374a3.462,3.462,0,0,0,3.306,2.438,3.74,3.74,0,0,0,3.308-4.486c-.957-3.092.083-7.2.565-8.518l0-.013.007-.014c.2-.549,5.113-13.426,22.584-13.426,17.2,0,21.087,15.959,21.241,16.626a3.462,3.462,0,0,0,2.873,2.671c9.752,1.44,14.015,6.536,13.03,15.58a6.1,6.1,0,0,1-6.1,5.416H127.814a18.667,18.667,0,0,0,.208-9.661,3.462,3.462,0,0,0-6.726,1.64,11.931,11.931,0,0,1-1.632,9.4c-3.448,4.583-8.67,6.9-15.527,6.9-.12,0-.241,0-.362,0h-.041a3.462,3.462,0,0,0-3.136,2c-.1.215-10.319,21.455-33.694,17.255-22.646-4.079-21.01-22.911-20.932-23.695a3.446,3.446,0,0,0,.019-.5c-.03-.865-.428-21.229,25.711-25.173a3.461,3.461,0,0,0,2.943-3.311c.035-1.072,1.112-26.266,24.12-28.378,9.354-.858,17.106.778,23.039,4.868a3.462,3.462,0,0,0,3.929-5.7c-7.3-5.033-16.589-7.075-27.6-6.062C76.739,37.452,69.265,56.04,67.936,67.706,40.1,73.323,39.092,96.542,39.071,99.23c-.184,2.666-.972,26.053,26.607,31.02a41.609,41.609,0,0,0,6.217.648v11.883a12.542,12.542,0,0,0-9.066,12.03v16.024a12.542,12.542,0,0,0,9.066,12.03V289.909a12.542,12.542,0,0,0-9.066,12.03v16.023a12.541,12.541,0,0,0,12.528,12.527H237.436a12.541,12.541,0,0,0,12.528-12.527v-4.371c26.775-.059,46.361-7.822,58.229-23.105,20.262-26.091,11.944-67.162,7.428-83.608A79.49,79.49,0,0,1,312.972,177.8Zm-106.9,94.3a3.462,3.462,0,0,0-3.462,3.462v13.852H176.66V183.362h25.945V240.1a3.462,3.462,0,0,0,6.923,0V183.362h24.447V289.411H209.528V275.559A3.462,3.462,0,0,0,206.067,272.1Zm-93.54,17.314V219.626a3.462,3.462,0,1,0-6.924,0v69.785H78.819V183.362H105.6V198.88a3.462,3.462,0,0,0,6.924,0V183.362h25.944v93.962a3.462,3.462,0,0,0,6.923,0V183.362h24.342V289.411Zm170.509-73.068c7.924,22.812,7.793,39.892-.387,50.765-9.782,13-29.372,14.755-41.751,14.412V183.438c18.668.1,31.859-4.99,39.975-9.624C275.471,194.639,282.679,215.341,283.036,216.343Zm-113.3-113.516v39.457H145.394V102.827Zm6.924,0h25.945v39.457H176.66Zm32.868,0H228.58a5.438,5.438,0,0,1,5.395,5.431v34.026H209.528Zm-85.452,0h14.4v39.457H112.527V110.016A23.487,23.487,0,0,0,124.076,102.827ZM105.6,111.383v30.9H78.819V130.449C93.979,127.981,102.571,116.359,105.6,111.383Zm-35.85,59.452V154.811a5.61,5.61,0,0,1,5.6-5.6H237.436a5.61,5.61,0,0,1,5.6,5.6v16.024a5.61,5.61,0,0,1-5.6,5.6H75.357A5.61,5.61,0,0,1,69.753,170.835ZM243.04,317.962a5.61,5.61,0,0,1-5.6,5.6H75.357a5.61,5.61,0,0,1-5.6-5.6V301.939a5.61,5.61,0,0,1,5.6-5.6H237.436a5.61,5.61,0,0,1,5.6,5.6Z"/><path d="M65.434,40.715A18.682,18.682,0,1,0,46.752,59.4,18.7,18.7,0,0,0,65.434,40.715Zm-30.441,0a11.759,11.759,0,1,1,11.759,11.76A11.771,11.771,0,0,1,34.993,40.715Z"/><path d="M243.077,9.511A16.24,16.24,0,1,0,259.316,25.75,16.258,16.258,0,0,0,243.077,9.511Zm0,25.556a9.317,9.317,0,1,1,9.316-9.317A9.327,9.327,0,0,1,243.077,35.067Z"/><path d="M209.528,257.362a3.462,3.462,0,1,0-6.923,0v2.807a3.462,3.462,0,0,0,6.923,0Z"/><path d="M266.722,67.609a3.462,3.462,0,0,0,3.461-3.462V60.533a3.462,3.462,0,1,0-6.923,0v3.614A3.462,3.462,0,0,0,266.722,67.609Z"/><path d="M263.26,86.694a3.462,3.462,0,1,0,6.923,0V83.081a3.462,3.462,0,1,0-6.923,0Z"/><path d="M279.8,77.076a3.462,3.462,0,0,0,0-6.924h-3.614a3.462,3.462,0,1,0,0,6.924Z"/><path d="M250.18,73.614a3.463,3.463,0,0,0,3.462,3.462h3.613a3.462,3.462,0,0,0,0-6.924h-3.613A3.463,3.463,0,0,0,250.18,73.614Z"/><path d="M38.311,137.037l-2.556,2.556a3.474,3.474,0,0,0,0,4.9c1.51,1.543,4.219.676,4.895,0l2.556-2.556a3.461,3.461,0,0,0-4.9-4.895Z"/><path d="M22.366,152.98l-2.555,2.556a3.463,3.463,0,0,0,0,4.9c1.366,1.365,4.22.675,4.9,0l2.555-2.556a3.462,3.462,0,0,0-4.9-4.9Z"/><path d="M40.65,152.98a3.461,3.461,0,0,0-4.895,4.9l2.556,2.556c.676.676,3.5,1.366,4.9,0a3.447,3.447,0,0,0,0-4.9Z"/><path d="M24.708,137.037a3.462,3.462,0,1,0-4.9,4.895l2.555,2.556a4.025,4.025,0,0,0,4.9,0,3.386,3.386,0,0,0,0-4.9Z"/><circle cx="89.22" cy="310.136" r="3.462"/><circle cx="156.397" cy="310.136" r="3.462"/><circle cx="224.401" cy="310.136" r="3.462"/><circle cx="89.22" cy="162.744" r="3.462"/><circle cx="156.397" cy="162.744" r="3.462"/><circle cx="224.401" cy="162.744" r="3.462"/></svg>